<svg xmlns="http://www.w3.org/2000/svg" width="45.37056mm" height="45.685844mm" viewBox="0 0 160.76183 161.87898" version="1.1">
  <g id="layer1" transform="translate(-96.761939,-468.56557)">
    <g id="g4958" transform="translate(-197.20173,-125.92427)">
      <!-- Coffee Bean 1 -->
      <path d="M337.60647,684.42003a27.560838,20.545353,58.252283,0,0,-1.20654,0.82997c0.43066,0.35369,0.89173,1.68344,1.39152,3.98923c1.60582,7.40877,4.46584,11.09376,10.32172,13.29466c19.13414,7.19145,21.17663,8.81987,21.68227,17.2948c0.21857,3.66304,-1.09852,9.25564,-2.22604,10.80703a27.560838,20.545353,58.252283,0,0,2.01061,-33.58927a27.560838,20.545353,58.252283,0,0,-31.97354,-12.62643z m-2.09606,1.60299a27.560838,20.545353,58.252283,0,0,-0.873,32.64465a27.560838,20.545353,58.252283,0,0,31.97318,12.62665a27.560838,20.545353,58.252283,0,0,0.35997,-0.24741c-0.118,-0.0192,-0.22884,-0.10977,-0.32966,-0.28346c-0.33468,-0.57649,-0.72537,-2.58119,-0.86761,-4.4541c-0.51651,-6.80208,-3.77598,-9.852,-15.56479,-14.57354c-9.38866,-3.76024,-11.58593,-5.16187,-13.85434,-8.82791c-2.10442,-3.40102,-2.52796,-5.79632,-1.92951,-10.91713c0.34359,-2.93992,0.70294,-4.92364,1.08575,-5.96778z" fill="#fff" stroke="#114639" stroke-width="4"/>
      <!-- Coffee Bean 2 -->
      <path d="M404.53007,655.38938a20.785448,27.882917,13.46647,0,0,-1.45585,-0.27483c0.053,0.56129,-0.57323,1.84006,-1.87271,3.84225c-4.1753,6.43322,-4.78299,11.11308,-2.18989,16.88639c8.473,18.86434,8.75939,21.49149,3.03442,27.89457c-2.47444,2.76755,-7.42883,5.80763,-9.34636,6.10367a20.785448,27.882917,13.46647,0,0,25.55135,-22.49505a20.785448,27.882917,13.46647,0,0,-13.72096,-31.95701z m-2.64485,-0.36261a20.785448,27.882917,13.46647,0,0,-24.06234,22.63869a20.785448,27.882917,13.46647,0,0,13.72056,31.95691a20.785448,27.882917,13.46647,0,0,0.43421,0.0822c-0.0703,-0.0984,-0.0843,-0.24255,-0.0314,-0.43873c0.17542,-0.65117,1.33643,-2.36042,2.57988,-3.79737c4.51606,-5.21866,4.38302,-9.73273,-0.62851,-21.56257c-3.99121,-9.4213,-4.55075,-11.99797,-3.53506,-16.23953c0.94226,-3.93495,2.36031,-5.94616,6.46379,-9.166c2.35584,-1.84855,4.03633,-3.0043,5.05889,-3.47358z" fill="#fff" stroke="#114639" stroke-width="4"/>
      <!-- Coffee Bean 3 -->
      <path d="M355.18422,617.29336a29.323972,21.85969,83.467838,0,1,1.55479,-0.10207c-0.12657,0.57926,0.36483,1.99379,1.46723,4.24905c3.54214,7.24635,3.58236,12.20925,0.14214,17.90726c-11.24093,18.61836,-11.87349,21.32472,-6.7097,28.73636c2.23189,3.20348,7.01823,7.00636,8.98251,7.5589a29.323972,21.85969,83.467838,0,1,-23.81913,-26.7289a29.323972,21.85969,83.467838,0,1,18.38216,-31.62061z m2.80725,-0.0427a29.323972,21.85969,83.467838,0,1,22.24635,26.68978a29.323972,21.85969,83.467838,0,1,-18.3817,31.62055a29.323972,21.85969,83.467838,0,1,-0.46374,0.0306c0.0859,-0.0939,0.11876,-0.24253,0.0885,-0.45404c-0.10047,-0.7021,-1.09552,-2.63396,-2.21123,-4.29199c-4.0521,-6.02164,-3.34005,-10.71739,3.39398,-22.4313c5.36302,-9.32898,6.27433,-11.94795,5.75253,-16.50504c-0.4841,-4.22769,-1.70917,-6.50743,-5.58432,-10.38993c-2.22477,-2.22898,-3.83244,-3.64895,-4.8404,-4.26872z" fill="#fff" stroke="#114639" stroke-width="4"/>
    </g>
  </g>
</svg>
